<svg xmlns="http://www.w3.org/2000/svg" viewBox="0 0 24 24" fill="#111827">
  <path d="M12 2C6.5 2 2 6.5 2 12c0 4.4 2.9 8.1 6.8 9.4 0.5 0.1 0.7-0.2 0.7-0.5v-1.9c-2.8 0.6-3.4-1.4-3.4-1.4-0.5-1.1-1.1-1.4-1.1-1.4-0.9-0.6 0.1-0.6 0.1-0.6 1 0.1 1.6 1 1.6 1 0.9 1.6 2.4 1.1 3 0.8 0.1-0.7 0.3-1.1 0.6-1.3-2.2-0.2-4.5-1.1-4.5-5a3.9 3.9 0 011-2.7c-0.1-0.2-0.4-1.3 0.1-2.7 0 0 0.8-0.3 2.8 1a9.6 9.6 0 015 0c2-1.3 2.8-1 2.8-1 0.5 1.4 0.2 2.5 0.1 2.7a3.9 3.9 0 011 2.7c0 3.9-2.3 4.8-4.5 5 0.4 0.3 0.7 0.9 0.7 1.8v2.6c0 0.3 0.2 0.6 0.7 0.5A10 10 0 0022 12c0-5.5-4.5-10-10-10z"/>
</svg>
